<svg width="202" height="128" viewBox="0 0 202 128" fill="none" xmlns="http://www.w3.org/2000/svg">
<path fill-rule="evenodd" clip-rule="evenodd" d="M155.578 85.5967C160.225 91.5038 165.033 97.3127 169.451 103.35C172.563 107.6 174.67 112.494 178.12 116.477C181.331 120.189 185.551 123.266 189.652 126.264C192.8 128.571 196.375 128.449 198.779 126.661C201.683 124.499 202.219 121.118 200.626 117.733C197.197 110.439 191.098 105.349 183.886 101.254C177.095 97.3921 172.969 91.6765 169.061 85.2279C172.521 83.5982 169.513 79.1948 173.645 77.411C175.591 78.4149 177.73 79.517 179.765 80.5676C179.026 85.9656 178.526 86.2738 172.464 85.3119C175.768 91.6719 176.185 91.8727 179.655 89.0662C181.628 89.8834 183.485 90.6539 185.38 91.4384C187.097 87.4599 187.097 87.4599 182.611 83.4161C183.371 80.591 184.568 77.6305 184.911 74.5906C185.921 65.751 184.032 57.1964 180.837 48.8752C179.229 44.6959 177.662 40.4559 175.482 36.5148C170.882 28.231 164.174 21.5208 155.391 16.5664C154.168 15.8753 152.747 15.2963 151.863 14.3343C146.399 8.43199 138.858 5.97112 131.058 3.86514C122.597 1.58172 113.891 0.129478 105.123 0.00340271C99.555 -0.0806427 93.9454 1.41362 88.3722 2.28683C77.9336 3.92585 68.4108 7.49808 59.5646 12.7934C47.1485 20.218 37.5946 29.6272 32.4845 42.3845C31.9902 43.6266 31.7612 45.0321 30.9442 46.0734C27.8064 50.0566 28.7431 53.7923 31.6415 57.6587C30.6528 58.3825 29.737 59.0549 28.4361 60.0075C32.3076 61.9313 30.0024 68.0578 37.3916 67.222C37.1002 67.6983 36.8088 68.1699 36.5174 68.6462C34.5868 69.3466 32.7187 70.3366 30.7101 70.7008C21.3174 72.4005 13.0383 76.0008 5.98731 81.8564C4.91014 82.7483 3.77054 83.5982 2.80785 84.5835C-0.767087 88.2304 -0.876364 90.4531 2.18341 94.8192C4.702 98.4194 7.05407 99.2179 12.0236 98.0085C13.4338 97.6676 14.818 97.1493 16.1033 96.5282C20.797 94.2588 25.5948 92.1248 30.0492 89.5145C32.5678 88.0389 34.7637 85.9236 36.6163 83.7569C40.7324 78.9286 46.4096 75.7813 51.707 72.2978C53.3097 71.2471 56.3331 70.5047 58.784 72.1063C52.9559 78.7371 52.9507 79.9419 58.8829 82.1459C58.7268 83.4954 58.2792 84.9523 58.451 86.3439C58.6695 88.0529 59.653 89.5005 61.9166 89.6266C64.0866 89.748 64.6226 88.4172 65.0753 86.8622C65.5228 85.3353 66.2201 83.8737 67.0891 81.665C70.4507 85.5687 73.7082 85.7228 77.0906 82.8464L76.9085 82.9771C75.8885 81.7443 75.5295 79.9606 73.5001 79.4656C72.9381 80.7684 72.4541 81.8984 71.7724 83.4814C69.9928 81.6883 68.6086 80.2921 66.5219 78.1908C64.7787 81.7023 63.3633 84.5601 61.7917 87.7214C59.4032 85.8442 61.7397 83.7663 61.0424 82.1086C60.3555 80.4509 59.3356 78.9052 58.2688 76.9627C61.1881 74.4645 61.3963 71.051 59.7623 67.5628C61.5732 66.1993 63.1135 65.0413 64.5549 63.9533C66.5219 64.7938 68.3588 65.5783 70.1177 66.3301C70.1541 67.9598 70.1905 69.6828 70.2321 71.4479L66.1837 70.7522C66.423 72.0363 66.8289 72.9469 66.6832 73.7734C66.5219 74.6653 65.8402 75.4778 65.3823 76.3276C65.6581 76.4724 65.9287 76.6172 66.2045 76.7619C67.443 75.7439 68.6814 74.726 69.9928 73.652C70.5756 74.6232 70.9763 75.291 71.9858 76.972C72.4489 73.6426 72.7507 71.4853 73.0733 69.1692C76.9813 69.5708 80.473 69.935 84.1676 70.3132C84.1312 71.2191 84.0792 72.5686 84.0011 74.4084C88.7261 72.8395 90.9741 75.9961 93.6332 77.7892C96.4171 79.6711 98.3737 82.4121 96.8646 86.2878C101.106 84.6301 99.7787 88.5479 101.616 89.1223L101.428 89.1503C101.616 87.614 101.803 86.073 101.985 84.5835C105.347 85.8256 105.347 85.8256 108.276 85.5454C104.613 82.7063 98.2488 83.2386 96.8074 76.958C99.2167 78.0134 100.918 78.8165 102.667 79.5076C103.624 79.8812 105.04 80.6003 105.602 80.2688C108.484 78.5924 111.06 79.5263 113.891 80.3341C118.189 81.5669 118.746 82.6549 116.363 86.5353C107.912 85.7088 109.635 88.1837 111.414 92.6198L109.458 101.833C107.589 97.7517 104.093 97.7703 100.944 97.1213L100.929 97.1259C102.479 101.184 107.366 101.436 110.785 105.027C111.7 102.636 112.736 101.193 112.684 99.7829C112.59 97.4108 114.11 96.701 116.68 96.2481C115.156 93.5117 113.834 91.1349 112.294 88.3798C118.054 89.9348 118.054 89.9348 119.943 85.2185C122.826 88.4592 127.691 85.1578 130.501 88.0249L129.414 93.1381C126.505 94.7725 124.996 91.8913 122.732 91.3543C122.332 95.3328 123.617 97.154 127.296 97.831C129.752 98.284 132.219 98.6809 134.982 99.1525C135.362 98.7556 136.064 98.0225 136.756 97.2894C134.935 100.754 134.909 103.57 139.368 106.106C141.013 104.793 142.756 103.402 144.864 101.725C145.504 101.996 146.877 102.58 148.527 103.28C148.673 102.608 148.917 102.169 148.808 101.819C148.34 100.287 147.575 98.9704 149.651 97.6022C150.832 96.8224 150.848 94.2028 151.961 93.8386C154.792 92.9233 152.664 91.3497 153.127 90.2243C153.809 88.5853 154.787 87.049 155.625 85.4893C154.709 86.2738 153.803 87.0396 152.815 87.8755C151.826 86.8155 150.9 85.0224 150.052 85.0504C146.196 85.1812 144.369 82.6456 142.48 80.8665C140.716 81.3334 139.139 82.272 138.114 81.9171C135.97 81.1747 137.865 79.7691 138.047 78.6157C138.187 77.7332 138.104 76.8226 138.135 75.2676C141.237 76.0848 144.239 76.2249 146.258 77.5651C149.693 79.8438 152.503 82.8791 155.578 85.5967ZM23.7475 84.6628C23.3781 84.6395 23.0138 84.6535 22.6495 84.6955C21.5724 83.8083 20.49 82.9211 19.4076 82.0339C18.0026 83.2293 16.5924 84.1959 15.0521 82.1833C14.1311 85.438 12.0496 88.0483 9.29686 90.5465C12.4035 90.5372 15.2967 90.1029 18.2056 89.7667C18.8717 89.6873 19.7667 89.79 20.209 90.1543C20.4796 90.3737 20.3391 91.5318 19.9696 91.7839C16.6341 94.0674 13.1112 95.8932 8.62038 94.9126C4.88933 94.1 3.35424 90.6819 6.08618 88.3611C8.7921 86.059 12.0808 84.3033 15.1198 82.3187C16.7173 81.3054 18.1796 80.0119 19.9384 79.3348C23.4353 77.9993 26.7553 75.6179 30.9807 77.1168C31.4022 76.6452 31.7404 75.8607 32.2608 75.7486C35.5027 75.0528 38.0993 73.4045 40.6335 71.5787C41.7419 70.7802 42.9804 70.0891 44.2605 69.5287C44.4322 69.454 45.1763 70.4393 45.6551 70.9296C48.6992 67.6282 51.6289 64.2848 56.0885 62.2535C59.32 60.7826 62.1716 58.644 65.3355 57.0329C67.3805 55.987 69.6389 54.9223 72.527 56.3232C63.0927 62.2722 54.0538 67.9738 45.0098 73.68C44.8485 73.4885 44.6924 73.2924 44.5311 73.101C44.8381 72.7134 45.1399 72.3211 45.4417 71.9336C39.7905 73.7687 35.0656 76.5611 32.7499 81.8471C32.1931 82.7717 34.5504 84.6442 31.2044 84.8076C31.7664 83.7196 32.2556 82.7717 32.7447 81.8284C31.7092 82.188 30.6684 82.5475 29.6329 82.9117L29.763 82.8417C28.0458 84.2239 26.2869 85.4893 23.7475 84.6628ZM192.103 123.901C189.293 124.312 188.226 122.416 186.972 120.768C187.05 120.609 187.128 120.446 187.211 120.287C185.723 119.465 184.053 118.816 182.778 117.779C180.4 115.846 178.25 113.684 176.002 111.62C175.17 109.766 174.332 107.917 173.494 106.064C176.205 107.404 178.464 108.903 175.997 111.625C176.71 111.588 177.829 111.265 178.089 111.555C180.119 113.852 184.427 113.283 185.723 116.551C185.905 117.004 187.352 117.051 188.216 117.289L188.424 117.313C188.59 116.85 189.064 116.173 188.882 115.968C187.086 113.96 185.223 111.989 183.298 110.084C181.544 108.356 179.681 106.727 177.871 105.05C178.214 104.779 178.552 104.509 178.896 104.238C187.929 108.688 194.975 114.707 198.274 123.883C194.413 125.76 194.413 125.76 191.983 123.789L192.103 123.901ZM165.387 70.4627C167.713 71.6394 170.039 72.8208 172.016 73.8247C170.471 77.425 169.201 80.3668 167.723 83.8036C164.96 80.4742 162.332 77.3036 159.699 74.1236C161.937 72.676 163.706 71.5413 165.455 70.416C163.612 70.1404 161.776 69.8696 159.933 69.5941C158.809 69.5334 157.68 69.4634 156.556 69.4167C154.282 69.3233 152.69 70.8782 153.309 72.7648C153.606 73.6613 154.36 74.4551 154.964 75.2583C160.298 82.2673 165.73 89.211 170.918 96.3041C172.313 98.2186 172.974 100.567 173.973 102.711C174.686 102.468 175.404 102.23 176.96 101.707C176.237 103.206 175.878 103.953 175.149 105.475C174.587 103.953 174.332 103.271 174.082 102.589C170.653 100.236 167.437 97.7517 164.981 94.4596C160.823 88.8701 156.416 83.4347 152.102 77.9433C148.699 73.6099 145.264 69.2906 142.085 65.2747C143.167 62.3469 144.739 61.6372 147.351 62.6691C149.344 63.4583 151.623 63.7431 153.481 64.7051C155.921 65.9612 159.699 65.9705 159.928 69.6081C161.75 69.8883 163.566 70.1778 165.387 70.4627ZM167.718 37.6729C166.095 36.9444 163.566 37.6495 162.369 34.619C164.726 35.5856 166.292 36.2253 167.859 36.8697C166.386 33.9979 164.913 31.1261 163.508 28.3944C162.27 28.3851 161.021 28.3804 159.418 28.3711C160.298 26.7134 160.886 25.6114 161.474 24.5093C159.985 23.9723 158.404 23.5754 157.025 22.8657C151.982 20.2694 147.138 17.3415 141.96 14.9834C138.088 13.223 133.832 12.1536 129.991 10.8555C130.954 13.195 131.329 15.5064 132.708 17.1408C134.763 19.5829 131.833 20.6616 131.605 22.408C131.589 22.5528 131.729 22.7162 131.797 22.8703L131.698 22.7489C133.54 22.1839 135.388 21.6189 137.23 21.0539C134.232 23.1365 134.087 23.8883 136.782 25.588C138 26.3538 139.233 27.0963 141.377 28.4131C138.76 28.5906 137.016 29.0528 135.44 28.768C122.691 26.4799 110.035 23.7622 97.2341 21.787C90.0582 20.6803 82.6638 20.7223 75.363 20.2974C73.4168 20.1853 71.4602 20.2694 69.0561 20.2694C69.2486 18.565 69.3839 17.3789 69.514 16.1928C67.8957 16.3282 66.2773 16.4637 64.4612 16.6178C64.0397 18.084 63.6443 19.4615 63.2332 20.8857C60.1318 22.1185 56.0833 20.8297 52.9923 23.8556C55.8075 23.7155 58.0034 23.6081 60.9383 23.468C58.6123 24.2292 55.8699 24.7335 55.8803 25.1724C56.0365 30.0194 51.5561 28.5952 48.923 29.5758C47.4243 30.1315 45.8736 30.5705 44.349 31.0608C45.6759 31.2242 47.0184 31.3223 48.3298 31.5697C51.0045 32.0694 54.4233 30.0848 56.3487 33.517C54.4597 33.6804 52.6541 33.8392 51.6237 33.9279C50.6506 36.6129 49.7764 39.0224 49.0791 40.9416C44.0003 42.067 39.6032 43.0429 34.2954 44.2196C37.0221 39.2325 39.1192 34.7451 42.996 31.1635C43.2197 30.9534 43.9431 31.1775 44.4218 31.1728C45.0931 29.7393 45.4209 28.0442 46.4877 26.9002C52.7685 20.148 60.9071 15.4971 69.2903 11.173C70.2269 10.6874 71.4654 10.6687 73.4012 10.2531C70.9815 12.3544 69.2799 13.8347 67.2192 15.6231C68.5201 15.95 69.0145 16.0714 69.5088 16.1975C70.3258 17.6077 71.1948 17.0427 71.965 16.1928C73.8123 14.1616 75.1808 11.4672 77.5225 10.1737C83.1113 7.08248 89.0539 4.34144 95.9852 4.71968C100.377 4.96249 104.779 5.16795 109.14 5.6676C124.335 7.41402 139.197 10.2438 152.352 17.8225C155.64 19.7137 159.522 21.0632 161.338 24.5794C170.107 29.4965 173.375 37.6028 176.705 45.7232C173.52 44.1029 170.554 42.3378 167.812 40.3252C167.312 39.9563 167.723 38.5835 167.718 37.6729ZM135.892 46.8019C135.148 46.7505 134.404 46.6992 133.66 46.6525L133.67 46.6478C133.983 48.7771 132.76 49.7531 130.574 49.5056C128.097 49.2207 125.657 48.6557 123.216 48.1514C116.951 46.8626 110.738 45.3777 104.436 44.2803C100.492 43.5939 96.4223 43.4865 92.4051 43.0989C83.1113 42.193 73.8175 41.2591 64.5185 40.3766C62.9886 40.2271 61.4379 40.2598 59.9965 40.2131C59.4605 37.3834 63.9773 34.9085 59.4345 32.7465C64.7943 28.6139 70.612 29.4077 76.4662 30.1409C86.0462 31.3409 95.6418 32.471 105.237 33.5823C115.161 34.731 124.814 36.8697 135.377 39.8442C132.63 41.035 130.767 41.8381 128.909 42.6413C128.93 42.7814 128.951 42.9121 128.971 43.0522C130.278 42.9215 131.589 42.7954 133.03 42.6553C134.003 44.0936 134.93 45.4571 135.83 46.8486C136.506 47.6658 137.183 48.4829 138.021 49.4916C137.001 49.9679 136.007 50.4348 135.013 50.9018C134.732 50.7103 134.451 50.5189 134.17 50.3274C134.742 49.1507 135.32 47.9786 135.892 46.8019ZM120.838 60.8246C123.919 61.7679 126.344 62.5104 129.06 63.3369C128.326 61.852 127.816 60.806 127.265 59.6759C129.528 60.1802 131.339 60.5818 133.145 60.9834C133.228 60.7032 133.311 60.4277 133.395 60.1522C131.719 59.4518 130.038 58.7514 127.421 57.6633C136.496 57.7801 139.925 62.2629 140.466 68.9217C137.068 70.5093 137.027 66.7737 135.034 66.1246C133.488 66.9558 131.979 67.7636 130.704 68.4454C132.52 72.2511 135.58 75.7626 135.471 79.1901C135.346 83.0051 136.964 83.6262 139.904 83.5842C142.74 83.5421 143.661 85.1485 144.598 86.498C144.879 90.5185 139.259 91.5224 140.191 95.4262C137.833 95.1974 135.773 95.0013 133.519 94.7865C133.108 92.7879 132.656 90.2757 132.057 87.7961C131.24 84.3873 127.218 84.7702 125.152 82.9071C124.163 83.6449 123.383 84.2192 122.587 84.8076C121.129 83.2339 119.855 81.8611 118.554 80.4602C119.173 79.2975 119.745 78.2282 120.672 76.5004C121.775 78.4289 122.508 79.7084 123.742 81.8611C125.246 77.5417 131.225 80.2454 132.177 75.6459C131.001 74.6139 129.82 73.5773 128.638 72.5406C128.331 72.7367 128.03 72.9329 127.723 73.1243C127.993 74.4365 128.264 75.7486 128.566 77.1728C125.714 77.5884 124.647 76.7526 124.944 74.2637C125.334 71.0323 123.45 69.0851 120 68.0018C119.381 68.9357 118.85 69.7435 118.335 70.514C116.441 70.0284 114.599 69.5568 113.215 69.2019C113.017 65.1627 108.516 61.4457 112.294 57.2851C110.42 56.1737 108.994 55.3286 106.544 53.8763L126.312 57.2664C124.096 58.7093 122.529 59.7226 120.838 60.8246ZM91.1302 47.7872C96.7762 46.0127 101.975 45.7559 107.215 46.9186C112.543 48.1047 117.867 49.3422 123.253 50.2434C140.888 53.1759 157.306 59.0829 173.042 66.6056C177.397 68.6835 181.191 71.5086 183.319 76.3697C181.68 77.1448 180.254 77.8126 179.354 78.2375C177.173 75.5572 176.002 72.8021 173.786 71.6394C167.026 68.0812 160.017 64.8451 152.825 62.0527C147.33 59.9141 141.403 58.672 135.695 56.9676C122.066 52.891 108.089 50.3041 93.8101 48.9686C92.8838 48.8799 92.0252 48.1934 91.1302 47.7872ZM103.25 52.5315C99.9556 54.1518 102.188 58.0789 98.0355 58.8494C99.5393 59.7787 100.58 60.4231 101.543 61.0114C100.903 62.9026 100.309 64.6444 99.7371 66.3394C95.9332 67.6095 95.928 63.7011 93.8205 62.4216C93.0295 64.1214 92.3999 65.4662 91.6714 67.0258C89.5899 65.0646 87.9351 63.5097 86.4468 62.1088C83.0124 63.6544 84.6204 67.5815 81.3472 68.5528C79.3022 65.0599 77.3924 61.8006 75.1808 58.0182C77.3092 57.187 79.3386 56.3885 81.7635 55.436C80.9986 54.0397 80.2597 52.6716 79.4531 51.1913C82.7522 49.2628 85.7704 49.5663 88.7625 51.6116C88.1745 52.6622 87.7426 53.4374 86.6862 55.3239C89.6055 54.6561 91.3331 54.446 92.837 53.8063C93.2845 53.6195 93.1076 52.2373 93.2169 51.4014C96.2766 51.747 99.1647 52.0739 103.25 52.5315ZM43.0064 53.1665C46.394 48.8005 51.0253 49.6877 55.6722 49.3562C55.7034 51.0465 55.7294 52.4381 55.7607 53.965C54.1943 53.1712 53.1276 50.9111 51.1086 52.9798C48.3558 55.7908 53.6792 55.9963 53.1328 58.3731C48.1633 62.0901 43.022 65.8678 35.7264 65.1767C35.2945 64.0466 35.0916 62.9633 34.4932 62.0994C33.9416 61.3009 32.9685 60.7406 32.1827 60.0728C32.3909 59.7646 32.599 59.4565 32.8072 59.1483C34.7794 59.6759 36.7516 60.2083 39.0724 60.8293C39.8269 57.3598 42.5953 56.3092 47.2006 56.9069C45.2388 55.1558 44.12 54.1565 43.0064 53.1665ZM38.448 56.7621C34.7429 57.9342 33.3119 57.4485 32.4585 54.927C31.2565 51.3921 32.2608 49.118 36.1011 47.1008C41.7991 44.1076 48.2153 43.4818 54.569 43.0476C59.6999 42.6927 64.8671 43.1083 69.8471 45.0088C68.0466 45.7933 66.2253 46.3069 64.3832 46.3676C57.1448 46.6058 49.9169 46.2182 42.8347 48.5016C40.1131 49.3795 37.938 50.3975 36.2104 52.34C35.9086 52.6809 35.9138 53.2459 35.7993 53.6428C36.7099 54.7122 37.5477 55.6974 38.448 56.7621ZM181.784 69.5054C176.819 68.6976 178.282 63.0474 174.337 61.455C175.029 60.7593 175.753 60.0402 176.83 58.9615C174.847 58.77 173.499 58.644 170.866 58.3918C173.25 57.584 174.379 57.201 175.487 56.8228C175.081 56.2064 174.561 55.5434 174.207 54.8149C174.02 54.4273 174.134 53.9277 174.114 53.4374C180.217 54.9036 182.528 58.0229 181.784 69.5054ZM69.5869 51.154C68.338 52.6902 67.4794 53.7456 66.6208 54.8009C65.1689 53.6008 63.7119 52.4007 62.3589 51.2847C61.5732 51.5275 60.7094 51.9104 59.8195 51.9851C59.627 51.9991 58.9349 50.715 59.1483 50.3788C59.5489 49.7671 60.4492 49.02 61.1361 49.0246C66.2201 49.0573 71.2989 49.2581 77.1739 49.4309C75.7949 51.3547 74.8062 52.7276 73.5833 54.432C71.8869 53.0405 70.7421 52.1019 69.5869 51.154ZM140.092 102.636C139.675 102.384 139.259 102.136 138.843 101.884C140.544 100.096 140.44 97.2847 143.833 96.0379C144.536 97.0232 145.134 97.8684 145.691 98.6435C143.599 100.133 141.845 101.385 140.092 102.636ZM97.7805 74.9781C94.7155 74.3617 93.2741 73.3298 94.5542 71.4806C94.9237 70.9389 96.3807 70.9996 97.3382 70.7849C97.4839 72.1857 97.6348 73.5773 97.7805 74.9781ZM83.9907 47.0727C83.9959 46.7272 83.9959 46.3863 83.9959 46.0408C85.3905 45.9194 86.7799 45.7933 88.7625 45.6205C88.1745 47.0214 87.8883 47.7078 87.4876 48.6557C86.1346 48.044 85.0627 47.563 83.9907 47.0727ZM149.823 91.4617C148.47 91.0602 147.127 90.6632 145.779 90.2663C145.785 89.8507 145.79 89.4351 145.795 89.0149C147.257 88.6833 148.719 88.3471 150.572 87.9269L149.823 91.4617ZM140.669 41.1517C138.942 42.5012 137.708 43.4585 135.877 44.8874L137.079 39.2419C138.463 39.975 139.462 40.512 140.669 41.1517ZM137.209 48.3242C137.807 45.3683 137.807 45.3683 140.68 46.5871C139.639 47.1101 138.786 47.535 137.209 48.3242ZM126.047 96.3228C127.894 94.4923 129.273 95.1367 130.605 95.9959C130.767 96.1033 130.647 96.5609 130.668 97.1166L126.047 96.3228ZM144.905 49.7017C144.702 49.599 144.494 49.557 144.4 49.4449C143.812 48.6837 143.245 47.9086 142.673 47.1381C143.001 47.0401 143.578 46.7972 143.625 46.8626C144.078 47.5023 144.468 48.1841 144.822 48.8752C144.936 49.1087 144.879 49.4075 144.905 49.7017ZM144.484 93.0634C144.843 92.8253 145.202 92.5824 145.566 92.3443C146.326 93.409 147.086 94.4736 147.845 95.5336C147.512 95.7297 147.184 95.9259 146.851 96.1266C146.066 95.104 145.275 94.086 144.484 93.0634ZM143.698 52.1065C143.698 52.2793 143.693 52.4521 143.688 52.6249L139.686 51.9384C139.717 51.7703 139.748 51.6022 139.78 51.4341L143.698 52.1065ZM25.0536 89.5145C24.8039 89.3371 24.5489 89.155 24.2991 88.9775C25.0172 88.1137 25.7405 87.2451 26.4586 86.3812C26.7344 86.5774 27.0102 86.7735 27.2912 86.9696C26.5419 87.8195 25.7978 88.6647 25.0536 89.5145ZM84.0479 24.0657C83.3506 24.472 82.8251 24.9296 82.6534 24.8409C82.1226 24.5654 81.7271 24.0797 81.2796 23.6735C81.649 23.4027 82.1174 22.8516 82.3567 22.9217C82.9031 23.0851 83.3298 23.5521 84.0479 24.0657ZM119.334 31.4997C120.292 30.3557 120.854 29.6786 121.634 28.7493C122.972 31.0234 122.597 31.8406 119.334 31.4997ZM114.385 28.3898C114.198 28.8007 114.011 29.2069 113.829 29.6132C112.731 29.0435 111.628 28.4925 110.561 27.8901C110.472 27.8388 110.649 27.4185 110.748 26.9375C112.002 27.4372 113.194 27.9135 114.385 28.3898ZM125.542 33.8205C125.407 33.1107 125.225 32.6437 125.324 32.5877C125.797 32.3309 126.344 32.1908 126.864 32.004C126.489 32.5223 126.109 33.0407 125.542 33.8205ZM39.0308 77.9993C38.5989 78.1067 38.1722 78.2095 37.7455 78.3122C37.7871 78.0274 37.7351 77.6771 37.9016 77.4764C38.0629 77.2849 38.4532 77.2522 38.7446 77.1495C38.8278 77.3923 38.9111 77.6351 39.0308 77.9993ZM91.5621 28.1656C90.9741 28.4271 90.563 28.768 90.1987 28.7306C89.7668 28.6886 89.3817 28.315 88.9706 28.0816C89.4286 27.764 89.8449 27.3158 90.3652 27.1803C90.589 27.1243 91.0261 27.7033 91.5621 28.1656ZM86.9308 24.7568C87.191 25.1678 87.3939 25.4946 87.6021 25.8262C87.165 26.0176 86.6602 26.4285 86.3168 26.3445C85.9681 26.2558 85.7756 25.6674 85.5154 25.3032C85.9317 25.1444 86.3428 24.981 86.9308 24.7568ZM89.6107 69.4307C89.9073 69.3186 90.2091 69.2019 90.5109 69.0898C90.8023 69.6922 91.0938 70.2992 91.3852 70.9016C91.0625 70.9856 90.4901 71.1958 90.4485 71.1351C90.1155 70.5934 89.8761 70.005 89.6107 69.4307ZM98.3789 25.2191C97.7545 25.3499 97.2653 25.5927 96.8959 25.4853C96.5628 25.3919 96.3651 24.9156 96.1101 24.6074C96.6357 24.3833 97.1508 24.0891 97.7076 23.9864C97.8169 23.9677 98.0927 24.6774 98.3789 25.2191ZM140.3 24.8082C140.118 25.065 139.998 25.4479 139.748 25.5413C139.53 25.6207 139.16 25.3826 138.853 25.2845C139.067 24.9483 139.285 24.6121 139.504 24.2759C139.764 24.4533 140.029 24.6261 140.3 24.8082Z" fill="#626263"/>
</svg>
